<?xml version="1.0" encoding="UTF-8"?>
<svg version="1.1" xmlns="http://www.w3.org/2000/svg" width="500" height="500">
<path d="M0 0 C165 0 330 0 500 0 C500 165 500 330 500 500 C335 500 170 500 0 500 C0 335 0 170 0 0 Z " fill="#1E2435" transform="translate(0,0)"/>
<path d="M0 0 C38.61 0 77.22 0 117 0 C117 5.94 117 11.88 117 18 C114.545625 18.12375 112.09125 18.2475 109.5625 18.375 C95.7250491 19.15837339 95.7250491 19.15837339 84 26 C80.34356486 32.40389935 79.41600526 38.68109179 79.48101807 45.93423462 C79.47351681 46.88199591 79.46601556 47.8297572 79.458287 48.80623853 C79.4381306 51.95389881 79.44608889 55.10083043 79.45410156 58.24853516 C79.44536002 60.5159984 79.43487222 62.78345549 79.42277527 65.05090332 C79.39496613 71.1865284 79.39150948 77.32195169 79.39249516 83.45763063 C79.38936171 89.87718482 79.36373446 96.29664871 79.34051514 102.71615601 C79.30458609 113.48444479 79.28246026 124.25265948 79.27099609 135.02099609 C79.25915434 146.1082705 79.23893209 157.19547786 79.20751953 168.28271484 C79.20558343 168.96709659 79.20364733 169.65147834 79.20165256 170.35659893 C79.19188745 173.79022937 79.18195844 177.22385932 79.17194796 180.65748906 C79.08922324 209.10497634 79.03844716 237.55241633 79 266 C97.81 266 116.62 266 136 266 C135.9144734 245.70238242 135.82083851 225.40485484 135.71247292 205.10734749 C135.66241243 195.68225848 135.61596888 186.25717788 135.578125 176.83203125 C135.54511998 168.61432708 135.50524205 160.39668948 135.45720994 152.17905891 C135.43202937 147.83039588 135.41022343 143.48177651 135.39665604 139.13306046 C135.38375872 135.03399686 135.36162282 130.9350837 135.33261681 126.83610344 C135.32360065 125.33741706 135.31786485 123.83870649 135.31578636 122.33999443 C135.82553524 106.78715835 135.82553524 106.78715835 129.06640625 93.46484375 C120.44716413 87.35479499 108.17147245 87.06137104 98 86 C98 80.39 98 74.78 98 69 C136.61 69 175.22 69 215 69 C215 74.94 215 80.88 215 87 C212.545625 87.12375 210.09125 87.2475 207.5625 87.375 C193.73448523 88.17356883 193.73448523 88.17356883 182 95 C177.11574532 102.78650216 177.45273004 111.39771366 177.54589844 120.27197266 C177.54702876 121.79066945 177.54638945 123.30936843 177.54412842 124.82806396 C177.54298754 128.92257748 177.56639426 133.01661586 177.59442425 137.11101961 C177.61954329 141.40043466 177.62178814 145.68986234 177.62652588 149.9793396 C177.63892495 158.08936737 177.6717047 166.19917772 177.71192384 174.30911005 C177.75673745 183.5473458 177.77865263 192.7855923 177.79870558 202.02390981 C177.8404403 221.01606282 177.91073222 240.00801389 178 259 C179.13526063 257.72627145 180.26719367 256.4495765 181.39770508 255.17163086 C182.02840408 254.46098984 182.65910309 253.75034882 183.30891418 253.01817322 C191.48074954 243.26575314 191.88525019 227.91808421 193.59326172 215.85986328 C194.11187304 212.21339687 194.67885108 208.5760781 195.25 204.9375 C195.62125 202.4934375 195.62125 202.4934375 196 200 C202.93 200 209.86 200 217 200 C217.29364455 228.72822551 216.40887525 257.30674597 215 286 C202.46 286 189.92 286 177 286 C177 302.17 177 318.34 177 335 C191.33017897 334.87992791 191.33017897 334.87992791 205.66015625 334.7421875 C211.51054564 334.68203822 217.36090391 334.62389355 223.21142578 334.578125 C227.93182604 334.54106663 232.65205257 334.49465269 237.37230301 334.44193649 C239.16704871 334.42350117 240.9618315 334.4083538 242.75663376 334.39665604 C262.06712517 334.50818936 262.06712517 334.50818936 278.65234375 325.57421875 C288.91941268 315.04590125 289.64362805 298.62388834 291.59326172 284.85986328 C292.11187304 281.21339687 292.67885108 277.5760781 293.25 273.9375 C293.4975 272.308125 293.745 270.67875 294 269 C300.93 269 307.86 269 315 269 C315.29406489 297.76934848 314.22540736 326.20292705 313 355 C242.05 355 171.1 355 98 355 C98 349.39 98 343.78 98 338 C99.30453125 337.92523438 100.6090625 337.85046875 101.953125 337.7734375 C116.92028796 336.82622686 116.92028796 336.82622686 130 330 C131.93820814 327.45580123 133.08304316 325.05001955 134 322 C134.33 321.01 134.66 320.02 135 319 C135.33 308.11 135.66 297.22 136 286 C91.12 286 46.24 286 0 286 C0 280.39 0 274.78 0 269 C1.30453125 268.92523438 2.6090625 268.85046875 3.953125 268.7734375 C18.92028796 267.82622686 18.92028796 267.82622686 32 261 C33.93820814 258.45580123 35.08304316 256.05001955 36 253 C36.33 252.01 36.66 251.02 37 250 C37.09818201 247.23633024 37.13905254 244.49792111 37.13371277 241.7341156 C37.1371111 240.45453518 37.1371111 240.45453518 37.14057809 239.14910465 C37.1469275 236.27964665 37.14608811 233.41023576 37.14526367 230.54077148 C37.14825469 228.48761433 37.15165708 226.43445773 37.15544128 224.38130188 C37.16429411 218.79420641 37.16662001 213.20712625 37.16725707 207.62002444 C37.16820576 202.95585374 37.17188383 198.29168661 37.17542917 193.62751728 C37.18357958 182.61878247 37.18601297 171.61005584 37.18530273 160.60131836 C37.18470266 149.25148292 37.19523912 137.90169511 37.2110464 126.55187172 C37.22413466 116.80651038 37.22948605 107.06116458 37.22884732 97.31579453 C37.2285926 91.49609554 37.23142959 85.67643881 37.24202538 79.85674858 C37.25172725 74.37797248 37.25177117 68.89927886 37.24450874 63.4204998 C37.24346531 61.41383748 37.24581143 59.40716996 37.2518692 57.40051651 C38.23016793 39.74067005 38.23016793 39.74067005 31.06640625 24.46484375 C22.44716413 18.35479499 10.17147245 18.06137104 0 17 C0 11.39 0 5.78 0 0 Z " fill="#B5B5B5" transform="translate(95,66)"/>
</svg>
